<?xml version="1.0" standalone="no"?>
<!DOCTYPE svg PUBLIC "-//W3C//DTD SVG 20010904//EN"
 "http://www.w3.org/TR/2001/REC-SVG-20010904/DTD/svg10.dtd">
<svg version="1.0" xmlns="http://www.w3.org/2000/svg"
 width="500.000000pt" height="500.000000pt" viewBox="0 0 500.000000 500.000000"
 preserveAspectRatio="xMidYMid meet">

<g transform="translate(0.000000,500.000000) scale(0.100000,-0.100000)"
fill="#000000" stroke="none">
<path d="M0 2500 l0 -2500 2500 0 2500 0 0 2500 0 2500 -2500 0 -2500 0 0
-2500z m490 113 c51 -126 103 -248 113 -272 l19 -44 112 269 111 269 54 3 c48
3 53 1 47 -15 -4 -10 -66 -161 -138 -335 l-132 -318 -55 0 -56 0 -120 292
c-66 160 -128 311 -137 335 l-18 43 53 0 52 0 95 -227z m620 202 c6 -8 10 -29
8 -47 -2 -25 -9 -35 -31 -42 -46 -17 -85 20 -73 68 10 42 68 54 96 21z m2085
14 c110 -31 157 -174 86 -269 l-20 -27 31 -23 c71 -52 88 -178 35 -258 -46
-70 -87 -82 -275 -82 l-162 0 0 335 0 335 133 0 c-72 0 -150 -5 -172 -11z m-1505
-149 l0 -60 65 0 65 0 0 -40 0 -39 -62 -3 -63 -3 0 -137 c0 -154 4 -163 65
-162 35 1 40 -1 45 -28 8 -35 6 -38 -37 -47 -78 -18 -137 15 -157 85 -6 22
-11 96 -11 167 l0 127 -30 0 c-27 0 -30 3 -30 31 0 24 6 32 30 40 29 11 30 13
30 70 l0 59 45 0 45 0 0 -60z m2390 0 l0 -60 60 0 60 0 0 -40 0 -40 -60 0 -60
0 0 -135 c0 -123 2 -137 21 -156 13 -13 30 -19 51 -17 26 3 32 -1 41 -25 11
-35 8 -38 -45 -47 -54 -10 -105 6 -132 43 -19 25 -21 45 -24 183 l-4 154 -34
0 c-31 0 -34 3 -34 29 0 25 6 31 35 41 35 11 35 12 35 71 l0 59 45 0 45 0 0
-60z m-2583 -58 c10 -6 10 -16 1 -45 -10 -34 -14 -37 -38 -32 -36 8 -105 -20
-124 -50 -13 -19 -16 -55 -16 -175 l0 -150 -50 0 -50 0 0 225 0 225 40 0 c-22
0 -40 -3 -40 -7 0 -5 4 -14 9 -21 6 -11 16 -8 46 12 38 26 114 36 142 18z m1209
-28 c68 -42 107 -114 107 -199 0 -52 -6 -74 -30 -117 -85 -151 -291 -157 -379
-10 -52 86 -51 172 2 259 63 102 196 132 300 67z m1879 6 c19 -12 46 -40 59
-63 25 -43 52 -160 41 -177 -4 -6 -72 -10 -166 -10 -108 0 -159 -3 -159 -11 0
-22 40 -67 74 -83 46 -22 91 -20 143 5 l44 21 25 -23 c13 -12 24 -26 24 -30 0
-20 -93 -61 -147 -66 -78 -7 -131 9 -186 57 -59 52 -81 108 -75 194 5 89 43
150 118 189 47 25 63 28 112 24 34 -3 72 -14 93 -27z m-3475 -205 l0 -225 -45
0 -45 0 0 225 0 225 45 0 45 0 0 -225z m870 75 c0 -169 8 -199 60 -220 40 -17
88 -6 122 27 l28 27 0 158 0 158 50 0 50 0 0 -225 0 -225 -39 0 c-31 0 -41 5
-46 19 -6 19 -7 19 -52 -5 -103 -55 -222 -6 -252 103 -6 21 -11 104 -11 186
l0 147 45 0 45 0 0 -150z m1599 12 c35 -75 67 -140 70 -144 3 -4 35 56 71 134
35 77 70 142 76 145 6 2 30 3 51 1 l40 -3 -143 -310 -143 -310 -52 -3 c-39 -2
-50 0 -46 10 3 7 26 59 53 116 l47 103 -96 199 -96 200 52 0 52 0 64 -138z"/>
<path d="M2990 2660 l0 -90 98 0 c89 0 100 2 119 23 28 31 34 65 18 104 -18
43 -47 53 -151 53 l-84 0 0 -90z"/>
<path d="M2990 2371 l0 -111 100 0 c54 0 110 5 123 11 61 28 74 127 23 178
-24 24 -34 26 -136 29 l-110 4 0 -111z"/>
<path d="M2532 2530 c-46 -28 -72 -76 -72 -133 0 -54 16 -90 55 -127 21 -20
37 -25 75 -25 38 0 54 5 75 25 39 37 55 73 55 127 0 57 -26 105 -72 133 -42
25 -74 25 -116 0z"/>
<path d="M4421 2528 c-19 -13 -43 -38 -54 -56 l-19 -32 122 0 c121 0 121 0
115 23 -11 36 -58 77 -95 83 -26 4 -44 0 -69 -18z"/>
</g>
</svg>
